<?xml version="1.0" standalone="no"?>
<!DOCTYPE svg PUBLIC "-//W3C//DTD SVG 20010904//EN"
 "http://www.w3.org/TR/2001/REC-SVG-20010904/DTD/svg10.dtd">
<svg version="1.0" xmlns="http://www.w3.org/2000/svg"
 width="16.000000pt" height="16.000000pt" viewBox="0 0 16.000000 16.000000"
 preserveAspectRatio="xMidYMid meet">
<metadata>
Created by potrace 1.11, written by Peter Selinger 2001-2013
</metadata>
<g transform="translate(0.000000,16.000000) scale(0.002286,-0.002286)"
fill="#000000" stroke="none">
<path d="M3435 6040 l0 -711 206 -212 c113 -117 245 -255 294 -307 49 -52 93
-99 99 -105 6 -5 29 -30 50 -55 21 -25 72 -81 112 -126 41 -45 84 -94 96 -110
13 -16 33 -40 46 -54 13 -14 31 -37 40 -52 9 -16 20 -28 24 -28 4 0 8 -4 8
-10 0 -5 18 -39 40 -75 111 -181 204 -424 236 -614 10 -61 13 -353 4 -406 -18
-104 -21 -122 -36 -177 -98 -381 -352 -757 -774 -1148 -107 -99 -313 -257
-380 -292 -14 -7 -40 -23 -59 -35 -18 -13 -67 -39 -107 -58 l-74 -36 -1 -42
c0 -23 -1 -288 -2 -589 -2 -446 0 -548 11 -548 32 0 237 52 347 88 457 150
844 395 1228 776 142 140 186 187 262 282 21 27 42 51 45 54 18 14 185 259
239 347 70 117 161 301 208 418 79 198 150 462 168 620 4 33 9 63 11 66 17 30
25 483 11 643 -34 383 -171 783 -385 1126 -64 103 -149 224 -201 286 -14 17
-44 53 -66 80 -22 27 -71 82 -110 123 -83 88 -1582 1591 -1587 1591 -2 0 -3
-320 -3 -710z"/>
<path d="M1204 4890 c7 -65 45 -182 83 -254 27 -50 131 -216 142 -226 4 -3 31
-36 62 -75 58 -72 225 -246 314 -326 156 -140 346 -285 600 -459 279 -191 396
-294 523 -459 119 -156 224 -362 263 -516 51 -200 65 -315 63 -500 l-1 -97 68
68 c38 38 101 110 141 159 40 50 76 92 80 95 24 18 183 276 235 380 121 245
166 429 167 680 1 137 -8 216 -35 330 -88 363 -294 696 -666 1076 l-138 142
-160 2 c-163 2 -326 5 -750 14 -132 3 -393 8 -580 12 -187 3 -357 7 -378 8
l-38 1 5 -55z"/>
</g>
</svg>
