<svg version="1.1" xmlns="http://www.w3.org/2000/svg" viewBox="0 0 24 24">
  <path d="M22.667,6.667h-3.748c-0.599-1.04-1.426-1.934-2.426-2.613l2.174-2.173L16.786,0l-2.893,2.893
           C13.28,2.747,12.653,2.667,12,2.667c-0.654,0-1.28,0.08-1.88,0.227L7.213,0l-1.88,1.88l2.16,2.173
           C6.506,4.733,5.68,5.626,5.08,6.667H1.333v2.667H4.12C4.053,9.773,4,10.213,4,10.667V12H1.333v2.667H4V16
           c0,0.453,0.053,0.894,0.12,1.333H1.333V20H5.08c1.387,2.387,3.959,4,6.92,4c2.961,0,5.534-1.613,6.919-4h3.748v-2.667H19.88
           C19.946,16.894,20,16.453,20,16v-1.333h2.667V12H20v-1.333c0-0.453-0.054-0.893-0.12-1.333h2.787V6.667z M14.667,17.333H9.333
           v-2.666h5.333V17.333z M14.667,12H9.333V9.333h5.333V12z"/>
</svg>
