<svg version="1.1" xmlns="http://www.w3.org/2000/svg" viewBox="0 0 24 24">
   <path d="M20.918,13.176C20.967,12.793,21,12.408,21,12s-0.033-0.793-0.082-1.175l2.532-1.98c0.226-0.182,0.286-0.504,0.144-0.769
            l-2.402-4.151c-0.144-0.265-0.469-0.361-0.731-0.265L17.475,4.86c-0.626-0.48-1.299-0.876-2.03-1.177L14.99,0.504
            C14.952,0.215,14.699,0,14.402,0H9.6C9.301,0,9.048,0.215,9.012,0.504L8.556,3.683C7.825,3.984,7.153,4.393,6.528,4.86L3.54,3.659
            c-0.275-0.107-0.588,0-0.731,0.265l-2.4,4.151C0.253,8.341,0.325,8.663,0.552,8.845l2.532,1.98C3.036,11.207,3,11.604,3,12
            s0.036,0.793,0.083,1.176l-2.532,1.981c-0.227,0.178-0.287,0.502-0.144,0.765l2.4,4.156c0.144,0.263,0.468,0.358,0.731,0.263
            l2.988-1.199c0.625,0.478,1.297,0.874,2.028,1.175l0.456,3.178C9.048,23.785,9.301,24,9.6,24h4.803c0.297,0,0.55-0.215,0.588-0.506
            l0.454-3.178c0.731-0.301,1.404-0.707,2.03-1.175l2.985,1.199c0.276,0.105,0.588,0,0.731-0.263l2.402-4.156
            c0.143-0.263,0.082-0.587-0.144-0.765L20.918,13.176z M12,16.199c-2.315,0-4.199-1.883-4.199-4.199c0-2.317,1.884-4.199,4.199-4.199
            c2.316,0,4.199,1.882,4.199,4.199C16.199,14.316,14.316,16.199,12,16.199z"/>
</svg>
