<svg version="1.1" xmlns="http://www.w3.org/2000/svg" viewBox="0 0 24 24">
  <polygon points="9.526,9.775 6.071,6.554 0,10.805 0.828,11.792 6.995,11.792 "/>
  <polygon points="9.526,14.207 6.071,17.427 0,13.176 0.828,12.19 6.995,12.19 "/>
  <polygon points="9.784,14.464 6.563,17.919 10.814,23.991 11.801,23.163 11.801,16.995 "/>
  <polygon points="14.216,14.464 17.437,17.919 13.185,23.991 12.198,23.163 12.198,16.995 "/>
  <polygon points="14.474,14.207 17.928,17.427 24,13.176 23.172,12.19 17.004,12.19 "/>
  <polygon points="14.474,9.775 17.928,6.554 24,10.805 23.172,11.792 17.004,11.792 "/>
  <polygon points="14.216,9.517 17.437,6.062 13.185,-0.009 12.198,0.819 12.198,6.987 "/>
  <polygon points="9.784,9.517 6.563,6.062 10.814,-0.009 11.801,0.819 11.801,6.987 "/>
  <circle cx="12" cy="11.991" r="0.644"/>
  <polygon points="11.85,10.981 11.85,9.781 9.91,11.721 9.91,12.261 11.85,14.201 11.85,13 10.84,11.991 "/>
  <polygon points="12.15,10.981 12.15,9.781 14.09,11.721 14.09,12.261 12.15,14.201 12.15,13 13.16,11.991 "/>
  <path d="M12,14.96c-1.638,0-2.97-1.332-2.97-2.97s1.332-2.97,2.97-2.97s2.97,1.332,2.97,2.97S13.637,14.96,12,14.96z M12,9.271
           c-1.5,0-2.72,1.22-2.72,2.72s1.22,2.72,2.72,2.72s2.72-1.22,2.72-2.72S13.499,9.271,12,9.271z"/>
</svg>

