<svg version="1.1" xmlns="http://www.w3.org/2000/svg" viewBox="0 0 24 24">
  <path d="M17.152,15.094h-1.084l-0.385-0.369c1.346-1.565,2.155-3.596,2.155-5.805C17.839,3.993,13.846,0,8.919,0S0,3.993,0,8.919
           s3.993,8.919,8.919,8.919c2.209,0,4.24-0.81,5.805-2.155l0.369,0.385v1.084L21.955,24L24,21.955L17.152,15.094z M8.919,15.094
           c-3.417,0-6.175-2.757-6.175-6.174c0-3.417,2.757-6.175,6.175-6.175c3.417,0,6.174,2.757,6.174,6.175
           C15.094,12.336,12.336,15.094,8.919,15.094z"/>
</svg>
