<svg version="1.1" xmlns="http://www.w3.org/2000/svg" viewBox="0 0 24 24">
  <path d="M12,3.272V0L7.637,4.363L12,8.728V5.454c3.611,0,6.545,2.935,6.545,6.546c0,1.102-0.271,2.149-0.763,3.054l1.593,1.593
           c0.851-1.341,1.352-2.934,1.352-4.646C20.727,7.179,16.822,3.272,12,3.272z M12,18.545c-3.611,0-6.546-2.934-6.546-6.545
           c0-1.102,0.273-2.148,0.765-3.055L4.626,7.353C3.774,8.694,3.272,10.288,3.272,12c0,4.822,3.906,8.727,8.728,8.727V24l4.363-4.363
           L12,15.273V18.545z"/>
</svg>
